<svg xmlns="http://www.w3.org/2000/svg" viewBox="0 0 510.24 167.79"><defs><style>.cls-1{fill:#00c0c9;}.cls-2{fill:#fff;}</style></defs><g id="Layer_2" data-name="Layer 2"><g id="Layer_1-2" data-name="Layer 1"><path class="cls-1" d="M32.69,0H453.9c4.85,0,9.14,2,11.56,5.86l42.7,69.25c3.28,5.42,2.72,12-2,17.42l-60.11,69.25a16.53,16.53,0,0,1-12.43,6H13.68c-8.42,0-14.57-6.57-13.57-14.85L16,14.85A17,17,0,0,1,32.68,0h0Z"/><path class="cls-2" d="M249.73,46.79,227.87,96.55,216.51,46.79H194.07l20,72.05-11.64,23.59h22.14l47-95.64H249.73ZM38,142.43H58.17l3.3-27.17A27.8,27.8,0,0,0,78,120.43c23.3,0,37.54-20.56,37.54-43,0-19.13-9.06-32.5-26-32.5a32.78,32.78,0,0,0-21,7.19l.71-5.32H49.68L38,142.46v0ZM63.2,101.15l4.46-35.38A20.69,20.69,0,0,1,81.18,61c8.62.13,13.37,7,13.37,17.83,0,14-7.33,25.89-19.71,25.89a21.28,21.28,0,0,1-11.64-3.6Zm56.23-1.86c-.15,11.64,9.35,21.14,23.87,21.14,10.21,0,17.68-4.31,22-9.06l-.87,7.34H184l4.74-39c2.31-19.27-4-34.95-28.76-34.95-10.07,0-22.29,2.3-28.91,6.62l-2,16.1a59.11,59.11,0,0,1,25.17-6.38c11.36,0,15.39,5.66,15,11.71H157.09c-17.55,0-37.54,6.75-37.68,26.46h0Zm20.28-1.59c0-7.77,9.06-10.65,18.4-10.65h9.49L166.16,98.7c-4,3.16-11.22,6.47-17.26,6.47-5.47,0-9.21-3-9.21-7.49h0v0Zm246.9-11.94c-.28,18,12.8,34.66,39.54,34.66,9.49,0,17.55-1.87,24.74-6.34l1.44-17c-5.89,3.6-14.82,6-22.58,6-10.21,0-19.42-4.46-22-14.81h49.76c.71-1.87,1.29-6.33,1.29-10.65,0-19-10.5-32.79-32.08-32.79S386.9,57.7,386.61,85.74h0Zm21.28-9.64c2-9.49,8.91-15.11,17.4-15.11s13.09,4.75,13.09,12.38a17.84,17.84,0,0,1-.14,2.73H407.89ZM288,118.69l6.62-52.63c4.46-3,9.49-5.46,13.81-5.46,5.61,0,8.34,4.17,7.48,11.36l-5.75,46.74h20.28l6.33-51.06.14-1.44c4.46-3,9.64-5.6,13.95-5.6,5.61,0,8.34,4.17,7.48,11.36l-5.75,46.74h20.28l6.33-51.06c1.73-14.23-5.61-22.86-18.69-22.86-9.06,0-18.7,5.18-25.16,9.93-2.74-6.34-8.78-9.93-17.27-9.93S301.38,49,294.91,53.27l.86-6.47h-19l-9.06,71.91H288v0Z"/></g></g></svg>